<?xml version="1.0" standalone="no"?>
<!DOCTYPE svg PUBLIC "-//W3C//DTD SVG 20010904//EN"
 "http://www.w3.org/TR/2001/REC-SVG-20010904/DTD/svg10.dtd">
<svg version="1.0" xmlns="http://www.w3.org/2000/svg"
 width="200.000000pt" height="50.000000pt" viewBox="0 0 200.000000 50.000000"
 preserveAspectRatio="xMidYMid meet">

<g transform="translate(0.000000,50.000000) scale(0.100000,-0.100000)"
fill="#E7DFD3" stroke="none">
<path d="M7 493 c-11 -11 -8 -83 4 -83 7 0 8 11 4 30 -5 23 -3 30 9 30 24 0
28 -17 11 -44 -13 -20 -14 -31 -5 -65 11 -41 24 -53 32 -29 3 7 -4 21 -14 32
-19 21 -25 41 -8 31 6 -3 10 -2 10 4 0 7 8 7 25 1 20 -8 27 -6 31 5 4 8 11 12
18 8 6 -4 6 0 -2 9 -10 13 -10 17 0 21 7 3 3 6 -9 6 -18 1 -23 7 -23 26 0 22
-4 25 -38 25 -21 0 -42 -3 -45 -7z"/>
<path d="M520 490 c0 -5 7 -10 15 -10 8 0 15 5 15 10 0 6 -7 10 -15 10 -8 0
-15 -4 -15 -10z"/>
<path d="M628 493 c7 -3 16 -2 19 1 4 3 -2 6 -13 5 -11 0 -14 -3 -6 -6z"/>
<path d="M670 496 c0 -2 6 -9 14 -15 10 -9 15 -8 20 4 4 10 -1 15 -14 15 -11
0 -20 -2 -20 -4z"/>
<path d="M720 485 c-9 -11 -10 -15 -1 -15 9 0 8 -5 -2 -14 -18 -18 -58 -10
-50 10 3 9 -2 14 -15 14 -12 0 -23 -9 -27 -21 -7 -22 5 -43 12 -22 4 10 7 10
18 0 9 -8 10 -19 4 -36 -10 -26 -6 -37 10 -26 6 3 11 17 11 29 0 17 7 25 25
29 24 4 26 2 22 -27 -2 -18 -9 -31 -17 -31 -7 0 -15 -6 -18 -13 -3 -11 0 -12
18 -2 13 7 36 9 57 5 26 -5 33 -3 28 6 -5 7 -3 10 6 7 8 -2 18 -14 24 -26 12
-27 25 -29 18 -3 -7 26 15 36 37 16 19 -17 71 -17 70 0 0 6 -3 10 -7 11 -5 0
-28 4 -52 8 -32 6 -46 5 -53 -5 -7 -11 -8 -9 -4 4 3 10 -1 25 -9 33 -12 12
-13 20 -3 37 14 27 29 38 46 32 6 -2 12 0 12 5 0 6 -21 10 -47 10 -30 0 -43
-3 -35 -9 10 -6 9 -10 -7 -14 -14 -3 -21 0 -21 9 0 19 -34 18 -50 -1z m57 -46
c2 -16 -1 -19 -9 -11 -5 5 -7 15 -4 21 10 15 12 14 13 -10z"/>
<path d="M953 470 c-2 -31 11 -49 20 -26 6 16 -2 56 -12 56 -3 0 -7 -13 -8
-30z"/>
<path d="M1192 480 c-16 -27 -15 -35 3 -20 12 10 15 10 15 -4 0 -9 5 -16 11
-16 7 0 9 10 7 25 -4 17 -1 25 8 25 8 0 14 -6 14 -12 0 -10 3 -9 9 1 5 7 14
10 20 6 7 -4 9 -11 3 -18 -15 -20 -22 -47 -12 -47 16 0 41 32 36 47 -4 10 0
13 17 11 12 -2 23 -9 23 -15 1 -7 2 -21 3 -30 1 -14 4 -14 13 -5 10 10 10 15
-2 22 -10 7 -5 8 18 4 19 -4 32 -2 32 4 0 5 -12 12 -27 15 -16 3 -46 10 -68
16 -64 17 -108 14 -123 -9z"/>
<path d="M1440 492 c6 -2 8 -8 4 -13 -3 -5 8 -9 23 -9 16 0 38 -7 49 -16 16
-13 16 -15 2 -10 -10 3 -18 1 -18 -5 0 -6 9 -13 19 -16 14 -3 19 -12 17 -29
-3 -26 -16 -46 -16 -23 0 8 -5 6 -14 -7 -15 -21 -35 -23 -69 -9 -10 4 -20 5
-23 2 -3 -3 4 -8 15 -12 26 -8 28 -25 3 -25 -19 0 -42 -18 -42 -33 0 -5 6 -4
14 2 10 8 16 9 21 1 3 -5 0 -10 -7 -10 -9 -1 -7 -5 4 -14 10 -7 15 -16 11 -19
-3 -4 5 -7 19 -7 14 0 32 7 39 16 11 14 10 19 -10 35 l-23 19 23 1 c13 1 27 1
32 0 4 0 7 9 7 21 1 22 1 23 15 4 8 -11 15 -15 15 -10 0 14 49 36 61 29 12 -8
12 -30 0 -53 -5 -9 -12 -25 -15 -34 -3 -10 -12 -18 -20 -18 -10 0 -13 6 -10
18 5 16 5 16 -6 -1 -6 -9 -16 -14 -22 -11 -7 5 -8 2 -2 -7 16 -25 15 -52 0
-46 -10 4 -13 1 -10 -8 8 -21 61 14 73 48 11 29 26 35 34 15 4 -10 6 -10 6 0
1 6 6 12 11 12 6 0 8 -11 4 -25 -6 -23 -4 -25 31 -25 20 0 34 4 31 9 -3 5 1
14 9 21 8 7 15 23 15 36 0 12 4 25 9 28 15 10 23 94 11 116 -6 11 -15 18 -20
15 -6 -3 -7 0 -4 8 5 15 -22 32 -30 19 -11 -18 -18 -102 -8 -102 6 0 13 6 15
13 4 7 6 8 6 1 1 -6 -6 -18 -16 -25 -13 -11 -17 -11 -20 -1 -3 6 -12 12 -20
12 -10 0 -13 6 -9 16 3 9 2 12 -5 9 -6 -4 -8 -13 -5 -21 3 -8 1 -14 -3 -14
-18 0 -41 12 -41 22 0 5 -7 17 -16 25 -9 10 -14 27 -12 44 3 20 1 26 -9 22 -8
-3 -12 -12 -9 -19 3 -7 1 -16 -4 -19 -5 -3 -14 10 -21 29 -12 32 -15 34 -56
33 -24 -1 -38 -4 -33 -5z m311 -89 c-11 -5 -11 -7 0 -14 11 -7 10 -9 -3 -9
-10 0 -18 7 -18 15 0 8 8 15 18 14 12 0 13 -2 3 -6z m-21 -124 c0 -5 -7 -9
-15 -9 -15 0 -20 12 -9 23 8 8 24 -1 24 -14z"/>
<path d="M1780 491 c0 -5 -3 -18 -7 -28 -6 -15 -4 -16 9 -6 8 7 18 10 21 6 9
-8 9 1 1 21 -7 17 -24 22 -24 7z"/>
<path d="M1847 476 c4 -17 11 -24 24 -23 24 2 25 17 2 18 -14 0 -13 2 5 9 30
13 28 20 -7 20 -25 0 -28 -3 -24 -24z"/>
<path d="M1980 485 c0 -8 2 -15 4 -15 2 0 6 7 10 15 3 8 1 15 -4 15 -6 0 -10
-7 -10 -15z"/>
<path d="M377 484 c-4 -4 -7 -18 -7 -31 0 -23 1 -23 22 -9 19 14 23 14 32 0
10 -13 14 -13 31 1 20 16 20 16 -2 12 -15 -4 -23 0 -23 9 0 8 -4 14 -9 14 -5
0 -16 2 -23 5 -8 3 -17 2 -21 -1z"/>
<path d="M1023 470 c-11 -16 -10 -18 2 -14 8 4 15 12 15 20 0 19 -3 18 -17 -6z"/>
<path d="M140 470 c0 -5 7 -7 15 -4 8 4 15 8 15 10 0 2 -7 4 -15 4 -8 0 -15
-4 -15 -10z"/>
<path d="M208 459 c-17 -18 -11 -25 16 -20 4 1 14 -6 22 -16 7 -10 14 -15 14
-12 0 7 -30 70 -33 68 -1 0 -10 -9 -19 -20z"/>
<path d="M524 459 c-5 -9 22 -19 49 -18 12 0 16 3 9 6 -6 2 -10 9 -7 14 4 5
-6 8 -20 7 -15 -2 -28 -6 -31 -9z"/>
<path d="M457 431 c-20 -13 -25 -21 -17 -26 7 -4 23 3 38 19 31 30 20 34 -21
7z"/>
<path d="M1820 424 c0 -21 -3 -24 -22 -19 -19 5 -20 4 -6 -5 9 -5 22 -26 28
-46 14 -43 21 -38 26 16 2 28 0 39 -8 34 -7 -5 -9 1 -4 20 4 15 2 26 -4 26 -5
0 -10 -12 -10 -26z"/>
<path d="M1009 428 c-1 -7 -1 -19 0 -27 2 -7 -2 -10 -8 -7 -5 4 -12 2 -16 -4
-3 -6 4 -9 18 -8 19 2 23 7 19 28 -4 24 -4 25 12 5 15 -20 15 -20 16 3 0 15
-6 22 -20 22 -11 0 -21 -6 -21 -12z"/>
<path d="M561 421 c-11 -7 -11 -9 0 -13 10 -3 8 -11 -9 -32 -23 -29 -21 -46 4
-46 12 0 19 26 15 53 0 4 16 7 37 8 20 0 30 3 22 6 -8 2 -22 7 -30 9 -13 5
-13 6 0 14 12 8 11 10 -5 10 -11 0 -26 -4 -34 -9z"/>
<path d="M1896 415 c-20 -15 -12 -39 10 -31 8 3 14 0 14 -7 0 -15 20 13 20 29
0 19 -24 23 -44 9z"/>
<path d="M1365 411 c-3 -6 -12 -8 -18 -5 -8 5 -8 3 1 -7 9 -10 15 -10 24 -1 6
6 9 14 6 17 -3 4 -9 1 -13 -4z"/>
<path d="M475 400 c-3 -5 -1 -10 4 -10 6 0 11 5 11 10 0 6 -2 10 -4 10 -3 0
-8 -4 -11 -10z"/>
<path d="M147 393 c-7 -11 24 -53 38 -53 5 0 1 8 -7 18 -9 9 -17 24 -20 32 -3
9 -7 10 -11 3z"/>
<path d="M190 391 c0 -5 5 -13 10 -16 6 -3 10 -2 10 4 0 5 -4 13 -10 16 -5 3
-10 2 -10 -4z"/>
<path d="M313 385 c0 -7 6 -11 14 -8 7 3 13 6 13 8 0 2 -6 5 -13 8 -8 3 -14
-1 -14 -8z"/>
<path d="M1271 384 c0 -11 3 -14 6 -6 3 7 2 16 -1 19 -3 4 -6 -2 -5 -13z"/>
<path d="M90 375 c-14 -16 -10 -18 14 -9 9 3 16 10 16 15 0 14 -16 11 -30 -6z"/>
<path d="M1150 381 c0 -6 4 -13 10 -16 6 -3 7 1 4 9 -7 18 -14 21 -14 7z"/>
<path d="M1180 375 c7 -8 17 -15 22 -15 5 0 3 7 -6 15 -8 8 -18 15 -22 15 -3
0 -1 -7 6 -15z"/>
<path d="M238 373 c7 -3 16 -2 19 1 4 3 -2 6 -13 5 -11 0 -14 -3 -6 -6z"/>
<path d="M270 364 c0 -8 5 -12 10 -9 6 4 8 11 5 16 -9 14 -15 11 -15 -7z"/>
<path d="M1370 376 c0 -2 7 -9 15 -16 9 -7 15 -8 15 -2 0 5 -7 12 -15 16 -8 3
-15 4 -15 2z"/>
<path d="M1870 360 c0 -19 11 -26 23 -14 8 8 -3 34 -14 34 -5 0 -9 -9 -9 -20z"/>
<path d="M230 344 c0 -8 -5 -12 -11 -8 -6 3 -24 -3 -40 -15 -15 -11 -36 -21
-46 -21 -24 0 -4 -16 31 -24 27 -7 28 -6 16 9 -12 14 -12 18 1 26 10 6 19 3
31 -12 12 -14 24 -18 38 -14 14 4 22 1 27 -10 5 -15 8 -14 19 6 11 21 9 25 -9
39 -12 8 -25 14 -29 12 -5 -1 -8 5 -8 13 0 8 -4 15 -10 15 -5 0 -10 -7 -10
-16z"/>
<path d="M1350 345 c7 -8 16 -12 21 -9 13 8 1 24 -18 24 -13 0 -13 -3 -3 -15z"/>
<path d="M1284 334 c3 -9 6 -18 6 -20 0 -2 5 -4 11 -4 8 0 8 4 0 14 -9 11 -9
15 1 19 8 3 6 6 -6 6 -13 1 -16 -4 -12 -15z"/>
<path d="M372 327 c18 -19 38 -22 38 -7 0 6 -4 10 -9 10 -5 0 -18 3 -28 7 -17
6 -17 6 -1 -10z"/>
<path d="M1165 330 c-3 -5 -2 -10 4 -10 5 0 13 5 16 10 3 6 2 10 -4 10 -5 0
-13 -4 -16 -10z"/>
<path d="M103 323 c-25 -5 -40 -20 -45 -47 -2 -15 3 -19 30 -21 39 -2 40 0 6
18 l-27 14 32 11 c17 6 31 16 31 21 0 6 -1 10 -2 10 -2 -1 -13 -4 -25 -6z"/>
<path d="M1320 326 c0 -2 9 -6 20 -9 11 -3 18 -1 14 4 -5 9 -34 13 -34 5z"/>
<path d="M1949 306 l-22 -25 -18 22 c-16 19 -18 20 -19 5 0 -10 -7 -18 -16
-18 -10 0 -14 -6 -11 -14 4 -10 0 -14 -13 -11 -10 2 -21 -3 -24 -11 -7 -18 35
-19 52 -2 9 9 12 8 12 -7 1 -20 1 -20 15 -1 13 17 17 17 32 5 10 -9 14 -9 9
-2 -12 21 12 55 35 48 23 -8 25 1 4 21 -13 13 -17 12 -36 -10z"/>
<path d="M1165 278 c-4 -12 -13 -26 -19 -30 -6 -5 0 -8 14 -9 38 -2 54 2 63
14 5 9 12 6 22 -7 11 -15 15 -16 15 -5 0 19 -33 47 -64 55 -19 4 -26 1 -31
-18z"/>
<path d="M1341 276 c-10 -12 -8 -13 8 -9 12 3 21 9 21 14 0 14 -16 11 -29 -5z"/>
<path d="M1773 282 c-18 -12 -27 -60 -13 -77 7 -8 12 -33 12 -56 -1 -27 3 -39
11 -36 7 3 11 10 10 16 -2 6 3 11 10 11 7 0 12 14 13 35 0 18 -3 32 -8 29 -4
-3 -8 -13 -8 -22 0 -14 -2 -13 -13 2 -9 13 -11 32 -7 62 4 24 6 44 6 44 -1 0
-6 -4 -13 -8z"/>
<path d="M811 264 c0 -11 3 -14 6 -6 3 7 2 16 -1 19 -3 4 -6 -2 -5 -13z"/>
<path d="M1978 273 c7 -3 16 -2 19 1 4 3 -2 6 -13 5 -11 0 -14 -3 -6 -6z"/>
<path d="M856 246 c3 -8 12 -12 20 -9 21 8 17 23 -6 23 -13 0 -18 -5 -14 -14z"/>
<path d="M315 242 c-5 -4 -10 -19 -10 -35 -1 -23 1 -25 13 -13 15 15 13 60 -3
48z"/>
<path d="M3 225 c0 -8 4 -12 9 -9 10 7 10 24 0 24 -5 0 -9 -7 -9 -15z"/>
<path d="M71 213 c0 -11 3 -13 6 -5 2 6 10 9 15 6 7 -4 8 -2 4 4 -11 18 -26
14 -25 -5z"/>
<path d="M1953 210 c-13 -5 -23 -14 -23 -20 0 -9 52 11 69 26 8 7 -24 3 -46
-6z"/>
<path d="M480 200 c0 -5 5 -10 11 -10 5 0 7 5 4 10 -3 6 -8 10 -11 10 -2 0 -4
-4 -4 -10z"/>
<path d="M721 187 c-1 -11 -10 -21 -21 -24 -20 -5 -28 -23 -11 -23 5 0 16 -3
24 -6 18 -7 26 14 16 46 -5 18 -7 20 -8 7z"/>
<path d="M1220 191 c0 -6 5 -13 10 -16 6 -3 10 -2 10 4 0 6 6 8 14 5 8 -3 17
-1 21 5 4 7 -5 11 -24 11 -17 0 -31 -4 -31 -9z"/>
<path d="M1387 193 c-4 -3 -7 -11 -7 -17 0 -6 5 -5 12 2 6 6 9 14 7 17 -3 3
-9 2 -12 -2z"/>
<path d="M1582 193 c-21 -8 -2 -23 29 -23 16 0 29 -4 29 -10 0 -5 7 -7 15 -4
25 10 17 24 -13 24 -15 0 -32 4 -37 9 -6 5 -16 6 -23 4z"/>
<path d="M28 148 c-3 -24 -1 -47 5 -53 7 -7 8 -6 3 2 -3 6 -2 14 4 18 16 10
12 -21 -5 -35 -8 -6 -19 -9 -25 -5 -6 4 -10 -9 -10 -36 0 -37 2 -40 16 -28 12
10 20 10 35 1 16 -10 19 -9 19 7 0 11 5 23 10 26 6 3 10 11 10 16 0 6 -5 7
-10 4 -5 -3 -10 -2 -10 4 0 5 8 15 18 20 15 9 15 10 -5 11 -14 0 -23 6 -23 15
0 8 7 15 16 15 10 0 14 7 12 18 -2 9 -10 16 -17 14 -9 -2 -11 3 -8 13 4 10 0
15 -12 15 -15 0 -20 -9 -23 -42z m19 0 c-3 -8 -6 -5 -6 6 -1 11 2 17 5 13 3
-3 4 -12 1 -19z"/>
<path d="M1503 175 c-7 -8 -9 -16 -4 -19 5 -3 12 1 15 10 8 22 4 25 -11 9z"/>
<path d="M1976 182 c7 -4 14 -16 17 -27 4 -15 5 -14 6 8 1 20 -4 27 -16 27
-12 0 -14 -3 -7 -8z"/>
<path d="M337 160 c3 -11 7 -20 9 -20 2 0 4 9 4 20 0 11 -4 20 -9 20 -5 0 -7
-9 -4 -20z"/>
<path d="M148 143 c5 -21 7 -23 10 -9 2 10 0 22 -6 28 -6 6 -7 0 -4 -19z"/>
<path d="M296 153 c-6 -14 -5 -15 5 -6 7 7 10 15 7 18 -3 3 -9 -2 -12 -12z"/>
<path d="M1009 168 c-6 -21 -5 -39 2 -44 5 -3 8 6 7 20 -2 22 -6 33 -9 24z"/>
<path d="M1839 148 c-1 -29 -8 -50 -21 -71 -12 -19 -12 -24 2 -38 13 -13 18
-13 29 -2 10 11 9 14 -2 19 -9 3 -13 13 -10 25 5 18 6 19 19 2 10 -14 13 -14
14 -4 0 8 8 24 18 35 16 20 16 20 0 7 -10 -7 -19 -11 -19 -7 -1 3 -3 11 -4 16
-1 6 -3 15 -4 20 -2 14 -21 12 -22 -2z"/>
<path d="M1278 143 c10 -4 10 -7 -2 -17 -13 -10 -13 -13 2 -26 14 -13 15 -12
9 3 -3 9 -2 19 3 22 16 10 11 25 -7 24 -12 0 -13 -2 -5 -6z"/>
<path d="M1460 140 c-13 -8 -12 -10 3 -10 9 0 17 5 17 10 0 12 -1 12 -20 0z"/>
<path d="M1570 140 c0 -5 5 -10 11 -10 5 0 7 5 4 10 -3 6 -8 10 -11 10 -2 0
-4 -4 -4 -10z"/>
<path d="M1602 133 c-5 -10 -7 -24 -5 -30 3 -7 0 -13 -6 -13 -6 0 -11 7 -11
15 0 8 -3 15 -7 16 -5 0 -16 2 -25 4 -10 2 -18 -1 -18 -6 0 -5 3 -9 8 -9 4 0
12 -11 19 -25 9 -21 8 -27 -7 -35 -9 -5 -20 -6 -24 -3 -3 3 -6 2 -6 -3 0 -17
94 -12 108 5 7 9 12 12 11 6 -2 -16 13 -55 21 -55 4 0 11 11 14 25 4 14 11 25
17 25 6 0 8 -4 5 -9 -4 -5 0 -12 6 -14 7 -3 4 -6 -7 -6 -17 -1 -17 -3 -5 -11
8 -5 26 -10 40 -10 17 0 21 3 12 9 -10 6 -9 10 7 14 37 9 23 24 -30 31 -60 8
-105 43 -82 65 7 6 11 16 8 22 -10 15 -34 10 -43 -8z"/>
<path d="M1728 143 c7 -3 16 -2 19 1 4 3 -2 6 -13 5 -11 0 -14 -3 -6 -6z"/>
<path d="M223 133 c-7 -2 -13 -9 -13 -14 0 -15 53 -6 58 9 4 12 -21 15 -45 5z"/>
<path d="M649 138 c-6 -21 -5 -39 2 -44 5 -3 8 6 7 20 -2 22 -6 33 -9 24z"/>
<path d="M1360 121 c0 -5 12 -8 26 -8 18 0 22 2 13 8 -18 11 -39 11 -39 0z"/>
<path d="M1328 103 c7 -3 16 -2 19 1 4 3 -2 6 -13 5 -11 0 -14 -3 -6 -6z"/>
<path d="M1483 103 c9 -2 23 -2 30 0 6 3 -1 5 -18 5 -16 0 -22 -2 -12 -5z"/>
<path d="M153 65 c1 -19 5 -35 8 -35 10 0 18 40 12 56 -10 27 -23 14 -20 -21z"/>
<path d="M200 80 c0 -11 5 -20 10 -20 6 0 10 9 10 20 0 11 -4 20 -10 20 -5 0
-10 -9 -10 -20z"/>
<path d="M1379 82 c11 -8 10 -13 -6 -29 -25 -25 -13 -53 20 -52 12 0 16 3 10
6 -19 7 -16 53 3 53 25 0 10 25 -17 28 -17 2 -20 0 -10 -6z"/>
<path d="M1755 80 c3 -5 12 -7 20 -3 21 7 19 13 -6 13 -11 0 -18 -4 -14 -10z"/>
<path d="M830 73 c0 -4 5 -15 10 -23 8 -13 10 -13 10 2 0 9 -4 20 -10 23 -5 3
-10 3 -10 -2z"/>
<path d="M935 60 c3 -5 13 -10 21 -10 8 0 14 5 14 10 0 6 -9 10 -21 10 -11 0
-17 -4 -14 -10z"/>
<path d="M1538 63 c7 -3 16 -2 19 1 4 3 -2 6 -13 5 -11 0 -14 -3 -6 -6z"/>
<path d="M295 40 c-3 -5 -1 -10 4 -10 6 0 11 5 11 10 0 6 -2 10 -4 10 -3 0 -8
-4 -11 -10z"/>
<path d="M470 40 c0 -5 5 -10 10 -10 6 0 10 5 10 10 0 6 -4 10 -10 10 -5 0
-10 -4 -10 -10z"/>
<path d="M220 31 c0 -6 -5 -10 -11 -8 -6 1 -14 -4 -16 -10 -3 -9 6 -13 26 -13
34 0 39 11 16 30 -10 9 -15 9 -15 1z"/>
<path d="M580 30 c20 -13 33 -13 25 0 -3 6 -14 10 -23 10 -15 0 -15 -2 -2 -10z"/>
<path d="M1975 19 c-4 -6 -5 -12 -2 -15 2 -3 7 2 10 11 7 17 1 20 -8 4z"/>
<path d="M310 9 c0 -5 9 -9 20 -9 11 0 20 2 20 4 0 2 -9 6 -20 9 -11 3 -20 1
-20 -4z"/>
<path d="M1904 8 c12 -7 21 -7 28 0 6 6 0 10 -18 10 -23 0 -24 -2 -10 -10z"/>
</g>
</svg>
