<?xml version="1.0" standalone="no"?>
<!DOCTYPE svg PUBLIC "-//W3C//DTD SVG 20010904//EN"
 "http://www.w3.org/TR/2001/REC-SVG-20010904/DTD/svg10.dtd">
<svg version="1.0" xmlns="http://www.w3.org/2000/svg"
 width="714.000000pt" height="241.000000pt" viewBox="0 0 714.000000 241.000000"
 preserveAspectRatio="xMidYMid meet">

<g transform="translate(0.000000,241.000000) scale(0.100000,-0.100000)"
fill="#f8f8f815" stroke="none">
<path d="M2395 2345 c-53 -10 -153 -56 -195 -89 -8 -6 -31 -20 -50 -30 -41
-22 -121 -85 -133 -103 -4 -7 -15 -13 -22 -13 -8 0 -15 -7 -15 -15 0 -8 4 -15
9 -15 8 0 105 45 171 79 8 5 40 15 70 24 49 14 66 15 147 2 111 -16 194 -54
287 -131 71 -58 80 -82 44 -107 -40 -26 -119 -109 -178 -187 -65 -85 -189
-206 -226 -221 -33 -12 -81 -12 -89 1 -16 27 147 294 231 377 59 59 58 63 -24
81 -65 15 -118 15 -191 2 -31 -5 -85 -14 -121 -19 -78 -11 -157 -32 -226 -58
l-52 -20 -28 22 c-89 69 -178 119 -309 176 -130 56 -373 69 -505 26 -138 -46
-257 -114 -235 -136 7 -7 32 -2 80 18 39 15 90 31 115 34 50 8 156 -4 240 -26
63 -16 222 -91 240 -112 7 -8 18 -15 24 -15 25 0 146 -107 146 -129 0 -19
-152 -181 -170 -181 -15 0 -109 46 -130 64 -8 7 -40 23 -70 35 -30 12 -68 28
-85 35 -50 22 -98 38 -145 47 -25 5 -63 13 -85 18 -94 24 -252 -1 -369 -59
-101 -50 -223 -178 -292 -306 -45 -82 -84 -164 -84 -175 0 -6 -7 -17 -15 -26
-17 -17 -16 -34 3 -41 7 -2 12 7 12 22 0 14 4 26 9 26 5 0 32 30 59 68 142
189 307 282 483 269 72 -6 159 -23 229 -47 87 -30 294 -143 346 -189 7 -5 29
-19 50 -30 l38 -21 25 23 c14 12 50 45 81 73 118 110 215 183 295 223 46 22
92 41 103 41 11 0 36 7 57 16 75 31 84 -2 29 -104 -74 -136 -194 -287 -269
-337 -48 -32 -160 -84 -207 -95 -99 -25 -134 -28 -363 -28 -201 0 -245 -2
-270 -16 -16 -9 -37 -16 -46 -16 -21 0 -128 -56 -204 -107 -63 -42 -178 -156
-210 -208 -11 -16 -34 -47 -53 -69 -19 -21 -40 -52 -48 -70 -8 -17 -23 -44
-34 -61 -18 -28 -49 -92 -87 -175 -9 -19 -22 -48 -30 -63 -15 -29 -11 -63 7
-52 5 3 10 15 10 25 0 10 6 23 13 27 7 4 26 33 42 63 69 134 95 170 185 260
69 69 106 98 182 145 88 54 174 83 263 90 44 4 94 10 111 15 39 10 155 -17
236 -54 49 -23 70 -26 159 -26 66 0 119 6 153 16 84 27 198 86 241 126 22 20
57 50 77 66 21 16 79 77 129 136 l92 106 54 0 c88 0 84 -14 -63 -216 -86 -118
-301 -345 -345 -364 -13 -6 -37 -19 -54 -29 -16 -11 -50 -29 -75 -41 -25 -11
-58 -28 -75 -36 -18 -10 -70 -18 -137 -21 -60 -3 -108 -10 -108 -14 0 -16 112
-39 194 -39 82 0 146 10 211 32 17 5 46 13 65 18 29 6 97 39 201 96 40 22 194
179 242 247 12 17 32 43 45 57 12 14 25 34 28 44 4 11 26 48 50 83 24 36 56
88 70 116 14 29 34 66 44 82 11 17 24 41 30 54 44 100 258 313 350 347 8 3 29
11 45 19 17 7 63 18 103 25 86 14 153 2 219 -41 22 -15 51 -30 63 -34 40 -13
210 -193 210 -223 0 -10 -29 -47 -65 -83 -76 -78 -173 -131 -251 -137 -95 -8
-256 65 -262 119 -2 20 8 35 45 68 61 54 70 61 80 61 4 0 22 8 38 17 36 20
148 24 167 6 13 -14 58 -18 58 -5 0 9 -30 36 -88 81 -51 40 -92 52 -189 58
-65 4 -77 2 -138 -28 -98 -49 -195 -162 -197 -229 -2 -56 90 -202 165 -260
123 -97 298 -142 402 -105 22 8 47 15 55 15 35 0 189 114 270 200 47 50 90 90
96 90 5 0 52 -45 103 -100 82 -87 210 -190 238 -190 6 0 25 -7 43 -17 48 -23
222 -24 269 0 19 9 38 17 44 17 24 0 133 77 189 136 79 81 108 134 108 197 0
44 -4 52 -57 110 -32 35 -85 81 -118 103 -56 37 -64 39 -147 42 -81 4 -92 2
-150 -27 -73 -35 -136 -90 -118 -101 6 -4 33 -3 58 2 94 18 180 -11 260 -88
29 -29 42 -50 42 -69 0 -32 -15 -45 -87 -80 -44 -22 -65 -26 -145 -26 -100 0
-130 10 -206 67 -51 39 -142 136 -142 152 0 7 37 51 82 98 84 87 165 142 263
176 62 22 162 23 212 2 164 -70 253 -136 341 -251 64 -86 132 -197 132 -217 0
-8 7 -19 15 -26 8 -7 15 -17 15 -22 0 -6 15 -36 34 -67 19 -31 48 -83 66 -116
18 -33 46 -78 63 -100 50 -64 200 -238 222 -258 34 -30 126 -87 140 -87 8 0
16 -4 19 -9 9 -14 90 -51 112 -51 10 0 32 -7 48 -15 37 -20 204 -38 270 -30
110 13 126 17 126 31 0 11 -18 14 -83 14 -117 0 -238 46 -355 136 -25 19 -48
34 -52 34 -8 0 -185 198 -232 260 -15 19 -31 40 -36 45 -16 21 -81 122 -111
173 -44 75 -42 82 23 82 48 0 58 -4 86 -32 18 -17 44 -50 58 -72 38 -59 209
-229 262 -260 110 -65 167 -86 285 -106 86 -14 190 3 275 47 16 9 68 13 150
13 176 -1 264 -26 418 -124 106 -67 252 -238 318 -373 21 -43 41 -80 45 -83 3
-3 9 -18 13 -33 4 -15 11 -25 16 -22 15 9 12 51 -5 65 -8 7 -15 21 -15 32 0
11 -6 32 -14 46 -7 15 -30 60 -50 101 -21 41 -50 92 -64 115 -15 23 -29 46
-32 52 -34 72 -198 254 -280 310 -164 113 -244 134 -540 144 -124 4 -247 13
-275 20 -217 54 -381 201 -500 450 -14 30 -30 63 -35 72 -14 25 -13 28 12 37
47 17 188 -40 293 -118 86 -64 119 -93 217 -189 l88 -85 45 24 c25 13 45 27
45 31 0 5 5 8 11 8 6 0 48 22 93 48 108 64 193 103 266 122 25 6 61 15 80 20
19 5 81 10 137 10 80 0 117 -5 165 -22 104 -35 231 -145 315 -271 46 -69 48
-71 51 -42 2 20 -11 56 -37 105 -21 41 -52 100 -67 130 -30 57 -220 260 -245
260 -7 0 -20 6 -28 13 -75 63 -343 81 -476 32 -22 -8 -48 -14 -57 -15 -10 0
-34 -7 -55 -16 -21 -9 -51 -22 -68 -28 -16 -7 -67 -31 -112 -54 -46 -23 -89
-42 -97 -42 -8 0 -40 28 -73 62 -32 34 -65 69 -74 78 -31 33 -31 50 3 82 83
77 330 208 393 208 14 0 56 5 94 12 75 13 190 0 244 -28 16 -8 37 -14 47 -14
9 0 23 -7 30 -15 13 -16 40 -21 40 -7 -1 20 -110 93 -200 134 -232 106 -554
55 -828 -129 -70 -47 -77 -49 -124 -29 -84 35 -209 69 -315 85 -171 26 -330 1
-272 -43 19 -15 89 -101 89 -110 0 -4 12 -23 26 -42 15 -19 51 -82 80 -141 57
-112 62 -150 21 -137 -56 16 -109 49 -155 97 -51 52 -172 204 -172 216 0 10
-76 91 -86 91 -18 1 -64 49 -64 67 1 10 11 26 23 36 51 40 173 117 187 117 9
0 26 8 40 17 18 13 52 18 141 21 119 4 152 -2 229 -48 8 -5 38 -21 67 -35 28
-14 55 -30 58 -35 8 -12 25 -13 25 -1 0 16 -106 113 -174 159 -92 61 -192 112
-241 124 -84 20 -100 20 -169 8 -77 -13 -136 -37 -204 -82 -24 -15 -46 -28
-50 -28 -4 0 -25 -17 -47 -36 -109 -98 -127 -109 -207 -135 -74 -23 -108 -24
-173 -2 -138 46 -270 126 -288 176 -10 28 -27 19 -27 -15 0 -28 33 -114 49
-128 4 -3 18 -23 32 -45 27 -41 78 -97 121 -131 50 -41 53 -52 22 -76 -59 -45
-148 -135 -207 -208 -34 -41 -70 -83 -81 -92 -18 -17 -20 -17 -40 5 -12 12
-46 54 -75 92 -30 39 -89 105 -132 148 -69 69 -98 117 -70 117 30 0 220 226
221 263 0 7 7 21 15 31 17 22 20 62 6 70 -5 3 -18 -9 -29 -28 -13 -22 -49 -50
-103 -83 -134 -79 -161 -88 -264 -88 -85 0 -93 2 -155 37 -36 20 -96 66 -134
101 -86 80 -206 145 -301 164 -80 15 -89 15 -170 -2z"/>
<path d="M3672 2270 c0 -14 2 -19 5 -12 2 6 2 18 0 25 -3 6 -5 1 -5 -13z"/>
<path d="M7050 1091 c0 -12 5 -21 10 -21 6 0 10 6 10 14 0 8 -4 18 -10 21 -5
3 -10 -3 -10 -14z"/>
<path d="M5988 483 c7 -3 16 -2 19 1 4 3 -2 6 -13 5 -11 0 -14 -3 -6 -6z"/>
<path d="M121 194 c0 -11 3 -14 6 -6 3 7 2 16 -1 19 -3 4 -6 -2 -5 -13z"/>
<path d="M7051 114 c0 -11 3 -14 6 -6 3 7 2 16 -1 19 -3 4 -6 -2 -5 -13z"/>
</g>
</svg>
